<svg width="190" height="180" xmlns="http://www.w3.org/2000/svg">
 <!-- Created with Method Draw - http://github.com/duopixel/Method-Draw/ -->

 <g>
  <title>background</title>
  <rect fill="#fff" id="canvas_background" height="182" width="192" y="-1" x="-1"/>
  <g display="none" id="canvasGrid">
   <rect fill="url(#gridpattern)" stroke-width="0" y="0" x="0" height="100%" width="100%" id="svg_5"/>
  </g>
 </g>
 <g>
  <title>Layer 1</title>
  <ellipse fill-opacity="0.34" ry="55" rx="55" id="svg_1" cy="56.750192" cx="94.250271" stroke="#000" fill="#8fff0f"/>
  <ellipse fill-opacity="0.24" ry="54.999727" rx="54.999727" id="svg_2" cy="123.250335" cx="131.499985" stroke="#000" fill="#0fffff"/>
  <ellipse fill-opacity="0.22" ry="55" rx="55" id="svg_3" cy="123.250321" cx="57.500109" stroke="#000" fill="#f70fff"/>
  <ellipse ry="9.5" rx="9.5" id="svg_4" cy="121.499949" cx="31.499978" stroke-width="1.5" stroke="#000" fill="#000000"/>
  <ellipse ry="4" rx="4" id="svg_6" cy="35.501016" cx="77.000287" stroke-width="1.5" stroke="#000" fill="#000000"/>
  <ellipse ry="4" rx="4" id="svg_7" cy="48.00072" cx="112.499915" stroke-width="1.5" stroke="#000" fill="#000000"/>
  <ellipse ry="4" rx="4" id="svg_9" cy="136.499789" cx="147.499626" stroke-width="1.5" stroke="#000" fill="#000000"/>
  <line stroke-linecap="null" stroke-linejoin="null" id="svg_10" y2="59.500876" x2="81.500066" y1="127.999964" x1="25.999967" stroke-width="3" stroke="#000" fill="none"/>
  <line stroke-linecap="null" stroke-linejoin="null" id="svg_12" y2="57.000821" x2="84.000114" y1="49.000692" x1="109.500011" stroke-width="3" stroke="#000" fill="none"/>
  <line stroke-linecap="null" stroke-linejoin="null" id="svg_14" y2="122.999973" x2="32.999978" y1="135.999802" x1="143.499724" stroke-width="3" stroke="#000" fill="none"/>
  <ellipse ry="4" rx="4" id="svg_15" cy="145.499992" cx="52.499976" stroke-width="1.5" stroke="#000" fill="#000000"/>
  <line stroke-linecap="null" stroke-linejoin="null" id="svg_16" y2="123.999963" x2="31.999976" y1="145.999964" x1="52.999976" stroke-width="3" stroke="#000" fill="none"/>
  <line stroke-linecap="null" stroke-linejoin="null" id="svg_17" y2="55.000802" x2="85.000107" y1="21.500879" x1="103.000418" stroke-width="3" stroke="#000" fill="none"/>
  <ellipse ry="4" rx="4" id="svg_18" cy="20.000898" cx="104.000422" stroke-width="1.5" stroke="#000" fill="#000000"/>
  <line stroke-linecap="null" stroke-linejoin="null" id="svg_19" y2="56.000802" x2="83.00011" y1="38.501001" x1="78.000279" stroke-width="3" stroke="#000" fill="none"/>
  <ellipse ry="6" rx="6" id="svg_21" cy="56.501048" cx="83.498866" stroke-width="1.5" stroke="#000" fill="#000000"/>
 </g>
</svg>