<?xml version="1.0" encoding="UTF-8" standalone="no"?>
<!DOCTYPE svg PUBLIC "-//W3C//DTD SVG 1.1//EN"
 "http://www.w3.org/Graphics/SVG/1.1/DTD/svg11.dtd">
<!-- Generated by graphviz version 2.38.0 (20140413.2041)
 -->
<!-- Title: vars Pages: 1 -->
<svg width="249pt" height="140pt"
 viewBox="0.00 0.00 249.09 140.00" xmlns="http://www.w3.org/2000/svg" xmlns:xlink="http://www.w3.org/1999/xlink">
<g id="graph0" class="graph" transform="scale(1 1) rotate(0) translate(4 136)">
<title>vars</title>
<polygon fill="white" stroke="none" points="-4,4 -4,-136 245.095,-136 245.095,4 -4,4"/>
<!-- result -->
<g id="node1" class="node"><title>result</title>
<ellipse fill="lightgreen" stroke="black" cx="120.547" cy="-18" rx="30.5947" ry="18"/>
<text text-anchor="middle" x="120.547" y="-14.3" font-family="Times,serif" font-size="14.00">result</text>
</g>
<!-- var2 -->
<g id="node2" class="node"><title>var2</title>
<ellipse fill="lightblue" stroke="black" cx="27" cy="-18" rx="27" ry="18"/>
<text text-anchor="middle" x="27" y="-14.3" font-family="Times,serif" font-size="14.00">var2</text>
</g>
<!-- var2&#45;&gt;result -->
<g id="edge1" class="edge"><title>var2&#45;&gt;result</title>
<path fill="none" stroke="black" d="M54.4793,-18C62.3633,-18 71.182,-18 79.7199,-18"/>
<polygon fill="black" stroke="black" points="79.9134,-21.5001 89.9134,-18 79.9134,-14.5001 79.9134,-21.5001"/>
</g>
<!-- var1 -->
<g id="node3" class="node"><title>var1</title>
<ellipse fill="lightblue" stroke="black" cx="27" cy="-93" rx="27" ry="18"/>
<text text-anchor="middle" x="27" y="-89.3" font-family="Times,serif" font-size="14.00">var1</text>
</g>
<!-- var3 -->
<g id="node4" class="node"><title>var3</title>
<ellipse fill="lightblue" stroke="black" cx="120.547" cy="-114" rx="27" ry="18"/>
<text text-anchor="middle" x="120.547" y="-110.3" font-family="Times,serif" font-size="14.00">var3</text>
</g>
<!-- var1&#45;&gt;var3 -->
<g id="edge2" class="edge"><title>var1&#45;&gt;var3</title>
<path fill="none" stroke="black" d="M53.0157,-98.7383C62.8849,-101.002 74.3876,-103.641 85.0257,-106.081"/>
<polygon fill="black" stroke="black" points="84.3494,-109.517 94.8788,-108.341 85.9145,-102.694 84.3494,-109.517"/>
</g>
<!-- var4 -->
<g id="node5" class="node"><title>var4</title>
<ellipse fill="lightblue" stroke="black" cx="214.095" cy="-91" rx="27" ry="18"/>
<text text-anchor="middle" x="214.095" y="-87.3" font-family="Times,serif" font-size="14.00">var4</text>
</g>
<!-- var1&#45;&gt;var4 -->
<g id="edge4" class="edge"><title>var1&#45;&gt;var4</title>
<path fill="none" stroke="black" d="M53.9021,-89.931C65.0002,-88.762 78.1182,-87.5736 90,-87 117.122,-85.6907 123.956,-86.1255 151.095,-87 159.525,-87.2717 168.591,-87.7506 177.117,-88.2849"/>
<polygon fill="black" stroke="black" points="176.96,-91.7821 187.17,-88.9538 177.424,-84.7975 176.96,-91.7821"/>
</g>
<!-- var3&#45;&gt;var4 -->
<g id="edge3" class="edge"><title>var3&#45;&gt;var4</title>
<path fill="none" stroke="black" d="M146.08,-107.836C156.034,-105.336 167.71,-102.402 178.502,-99.6908"/>
<polygon fill="black" stroke="black" points="179.648,-103.012 188.494,-97.1806 177.942,-96.2228 179.648,-103.012"/>
</g>
</g>
</svg>
