<?xml version="1.0" encoding="UTF-8" standalone="no"?>
<!DOCTYPE svg PUBLIC "-//W3C//DTD SVG 1.1//EN"
 "http://www.w3.org/Graphics/SVG/1.1/DTD/svg11.dtd">
<!-- Generated by graphviz version 2.38.0 (20140413.2041)
 -->
<!-- Title: vars Pages: 1 -->
<svg width="339pt" height="121pt"
 viewBox="0.00 0.00 339.09 121.00" xmlns="http://www.w3.org/2000/svg" xmlns:xlink="http://www.w3.org/1999/xlink">
<g id="graph0" class="graph" transform="scale(1 1) rotate(0) translate(4 117)">
<title>vars</title>
<polygon fill="white" stroke="none" points="-4,4 -4,-117 335.095,-117 335.095,4 -4,4"/>
<!-- var2 -->
<g id="node1" class="node"><title>var2</title>
<ellipse fill="lightblue" stroke="black" cx="27" cy="-18" rx="27" ry="18"/>
<text text-anchor="middle" x="27" y="-14.3" font-family="Times,serif" font-size="14.00">var2</text>
</g>
<!-- var1 -->
<g id="node2" class="node"><title>var1</title>
<ellipse fill="lightblue" stroke="black" cx="27" cy="-72" rx="27" ry="18"/>
<text text-anchor="middle" x="27" y="-68.3" font-family="Times,serif" font-size="14.00">var1</text>
</g>
<!-- var3 -->
<g id="node3" class="node"><title>var3</title>
<ellipse fill="lightblue" stroke="black" cx="117" cy="-95" rx="27" ry="18"/>
<text text-anchor="middle" x="117" y="-91.3" font-family="Times,serif" font-size="14.00">var3</text>
</g>
<!-- var1&#45;&gt;var3 -->
<g id="edge1" class="edge"><title>var1&#45;&gt;var3</title>
<path fill="none" stroke="black" d="M52.5129,-78.4068C61.5717,-80.7744 72.0115,-83.503 81.775,-86.0548"/>
<polygon fill="black" stroke="black" points="81.0585,-89.4851 91.6186,-88.6276 82.8286,-82.7126 81.0585,-89.4851"/>
</g>
<!-- var4 -->
<g id="node4" class="node"><title>var4</title>
<ellipse fill="lightblue" stroke="black" cx="207" cy="-72" rx="27" ry="18"/>
<text text-anchor="middle" x="207" y="-68.3" font-family="Times,serif" font-size="14.00">var4</text>
</g>
<!-- var1&#45;&gt;var4 -->
<g id="edge3" class="edge"><title>var1&#45;&gt;var4</title>
<path fill="none" stroke="black" d="M53.9246,-69.9538C65.0265,-69.1744 78.1413,-68.3821 90,-68 113.988,-67.227 120.012,-67.227 144,-68 152.431,-68.2717 161.496,-68.7506 170.022,-69.2849"/>
<polygon fill="black" stroke="black" points="169.865,-72.7821 180.075,-69.9538 170.33,-65.7975 169.865,-72.7821"/>
</g>
<!-- var3&#45;&gt;var4 -->
<g id="edge2" class="edge"><title>var3&#45;&gt;var4</title>
<path fill="none" stroke="black" d="M142.513,-88.5932C151.572,-86.2256 162.012,-83.497 171.775,-80.9452"/>
<polygon fill="black" stroke="black" points="172.829,-84.2874 181.619,-78.3724 171.058,-77.5149 172.829,-84.2874"/>
</g>
<!-- result -->
<g id="node5" class="node"><title>result</title>
<ellipse fill="lightgreen" stroke="black" cx="300.547" cy="-72" rx="30.5947" ry="18"/>
<text text-anchor="middle" x="300.547" y="-68.3" font-family="Times,serif" font-size="14.00">result</text>
</g>
<!-- var4&#45;&gt;result -->
<g id="edge4" class="edge"><title>var4&#45;&gt;result</title>
<path fill="none" stroke="black" d="M234.479,-72C242.363,-72 251.182,-72 259.72,-72"/>
<polygon fill="black" stroke="black" points="259.913,-75.5001 269.913,-72 259.913,-68.5001 259.913,-75.5001"/>
</g>
</g>
</svg>
